<?xml version="1.0" encoding="UTF-8" standalone="no"?>
<svg width="69px" height="86px" viewBox="0 0 69 86" version="1.1" xmlns="http://www.w3.org/2000/svg" xmlns:xlink="http://www.w3.org/1999/xlink">
    <!-- Generator: Sketch 3.7.1 (28215) - http://www.bohemiancoding.com/sketch -->
    <title>wolf</title>
    <desc>Created with Sketch.</desc>
    <defs></defs>
    <g id="Page-1" stroke="none" stroke-width="1" fill="none" fill-rule="evenodd">
        <g id="wolf" transform="translate(-199.000000, 195.000000) scale(-1, 1) translate(199.000000, -195.000000) translate(-490.000000, -6.000000)">
            <g id="background">
                <rect id="canvas_background" x="0" y="0" width="582" height="402"></rect>
            </g>
            <g id="Layer-1" transform="translate(23.000000, 6.000000)" fill="#000000">
                <path d="M68.1,74.4 C68,74.2 67.7,74 67.4,74.1 L52.5,76.7 L46.2,73.8 L45.2,55.3 L45.2,55.3 C45.2,55.2 45.2,55.1 45.1,55 L45.1,55 L45.1,55 L36.1,42.3 L29.6,34.2 L28.6,29.3 L27.7,24.9 L35.2,23.3 C35.5,23.2 35.7,23 35.7,22.8 C35.7,22.5 35.6,22.3 35.4,22.1 L25.9,16.9 L22,12 C21.8,11.8 21.5,11.7 21.3,11.8 L20.5,12 L15,0.7 C14.9,0.5 14.7,0.4 14.5,0.3 C14.3,0.3 14,0.4 13.9,0.6 L10.8,4.8 C10.7,4.9 10.7,5.1 10.7,5.3 L11.3,10.2 L9.1,8.2 C8.8,8 8.5,8 8.2,8.2 L6.6,9.7 C6.4,9.9 6.4,10.1 6.4,10.3 L7.6,16.5 C7.6,16.5 7.6,16.5 7.6,16.6 L7,16.8 L7,16.8 C7,16.8 6.9,16.8 6.9,16.9 C6.9,16.9 6.8,16.9 6.8,17 L6.7,17.1 C6.7,17.1 6.7,17.2 6.6,17.2 L6.6,17.3 L6.6,17.4 L6.6,17.4 L7.2,24.7 L3.7,37.5 L3.7,37.5 L3.7,37.5 L3.7,37.7 C3.7,37.7 3.7,37.7 3.7,37.8 L3.7,37.8 L3.7,37.8 L7.3,54.9 L6.1,79.8 L2,82.3 C1.9,82.3 1.9,82.4 1.8,82.5 L0.5,84.2 C0.4,84.4 0.3,84.7 0.4,84.9 C0.5,85.1 0.7,85.3 1,85.3 L11.4,85.3 L11.6,85.3 L11.7,85.3 C11.8,85.3 11.8,85.2 11.8,85.2 L11.8,85.2 L11.8,85.2 L11.9,85.1 L11.9,85 L11.9,85 L16.5,65.4 L18,66.7 L16.1,74.6 L16.1,74.6 L16.1,74.8 L16.1,74.8 C16.1,74.9 16.2,75 16.2,75 L16.2,75 L16.2,75 L19.8,80 L15.7,81.8 C15.6,81.8 15.5,81.9 15.4,82 L13.8,84.3 C13.7,84.5 13.6,84.8 13.8,85 C13.9,85.2 14.1,85.4 14.4,85.4 L32.1,85.4 C32.2,85.4 32.4,85.3 32.5,85.3 L32.5,85.3 L34.4,83.8 L43.2,85.4 L43.3,85.4 L43.3,85.4 L43.3,85.4 L43.3,85.4 L43.3,85.4 L43.4,85.4 L60.1,84.1 L60.1,84.1 L60.2,84.1 L60.3,84.1 L60.4,84 C60.4,84 60.5,84 60.5,83.9 L67.9,75.4 C68.2,75 68.2,74.7 68.1,74.4 L68.1,74.4 Z M52.4,78.2 L58.3,82.7 L45.4,83.7 L52.4,78.2 L52.4,78.2 Z M27.4,23.6 L26.3,18.6 L33.1,22.3 L27.4,23.6 L27.4,23.6 Z M24.8,17.6 L28.2,33.3 L8.5,24.3 L7.9,17.8 L21.3,13.1 L24.8,17.6 L24.8,17.6 Z M7.6,10.4 L8.5,9.5 L11.5,12.3 C11.7,12.5 12,12.5 12.2,12.4 C12.4,12.3 12.6,12 12.6,11.7 L12,5.4 L14.3,2.3 L19.3,12.5 L8.8,16.2 L7.6,10.4 L7.6,10.4 Z M8.2,25.7 L28.6,35 L34,41.8 L5.1,37.2 L8.2,25.7 L8.2,25.7 Z M5.1,38.4 L15.9,40.1 L8.2,53 L5.1,38.4 L5.1,38.4 Z M11,83.3 L7.4,79.9 L7.7,73 L15.1,65.9 L11,83.3 L11,83.3 Z M7.8,71.2 L8.5,56.5 L15.3,63.9 L7.8,71.2 L7.8,71.2 Z M2.8,83.3 L6.6,81 L9.7,83.9 L2.3,83.9 L2.8,83.3 L2.8,83.3 Z M16.7,63.5 L8.8,54.8 L17.4,40.4 L34.6,43.2 L18.7,65.3 L16.7,63.5 L16.7,63.5 Z M19.4,66.5 L35.6,43.8 L43.6,55.2 L17.9,73 L19.4,66.5 L19.4,66.5 Z M17.8,74.7 L44,56.5 L44.9,73.8 L25.1,83.8 L21.4,79.8 L17.8,74.7 L17.8,74.7 Z M31.9,83.9 L27.7,83.9 L39.8,77.8 L31.9,83.9 L31.9,83.9 Z M16.5,82.8 L20.7,81 L23.4,83.9 L15.7,83.9 L16.5,82.8 L16.5,82.8 Z M45.6,75 L51.1,77.6 L43.1,84 L35.7,82.7 L45.6,75 L45.6,75 Z M60,82.4 L54,77.8 L65.8,75.8 L60,82.4 L60,82.4 Z" id="svg_1"></path>
            </g>
        </g>
    </g>
</svg>