<?xml version="1.0" standalone="no"?>
<!DOCTYPE svg PUBLIC "-//W3C//DTD SVG 20010904//EN"
 "http://www.w3.org/TR/2001/REC-SVG-20010904/DTD/svg10.dtd">
<svg version="1.0" xmlns="http://www.w3.org/2000/svg"
 width="768.000000pt" height="768.000000pt" viewBox="0 0 768.000000 768.000000"
 preserveAspectRatio="xMidYMid meet">
<metadata>
Created by potrace 1.11, written by Peter Selinger 2001-2013
</metadata>
<g transform="translate(0.000000,768.000000) scale(0.100000,-0.100000)"
fill="#000000" stroke="none">
<path d="M3765 7619 c-278 -238 -648 -480 -934 -610 -433 -197 -835 -271
-1554 -286 l-318 -6 4 -1976 c2 -1827 4 -1984 20 -2081 101 -604 362 -997 962
-1450 228 -172 514 -359 1095 -715 267 -164 556 -342 643 -397 l157 -98 158
98 c86 55 375 233 642 397 581 356 867 543 1095 715 530 400 804 769 919 1240
64 264 60 117 63 2291 l4 1976 -318 6 c-604 12 -939 60 -1308 187 -362 125
-756 359 -1147 682 -59 48 -109 88 -110 87 -2 0 -34 -27 -73 -60z m206 -843
c616 -416 1214 -624 1934 -671 50 -3 109 -8 133 -11 l42 -5 0 -1584 c0 -1029
-4 -1619 -10 -1686 -52 -507 -279 -807 -965 -1271 -250 -170 -1243 -788 -1265
-788 -20 0 -974 593 -1242 772 -695 464 -936 778 -988 1287 -6 67 -10 657 -10
1686 l0 1584 43 5 c23 3 83 8 132 11 720 47 1343 264 1935 673 63 44 120 80
126 81 6 1 67 -37 135 -83z"/>
<path d="M3840 3800 c0 -1259 2 -2290 4 -2290 3 0 150 91 328 202 631 393 875
564 1039 728 141 141 195 242 218 413 7 53 11 499 11 1368 l0 1289 -22 5 c-13
2 -75 14 -138 26 -425 77 -874 240 -1273 462 -86 48 -159 87 -162 87 -3 0 -5
-1030 -5 -2290z"/>
</g>
</svg>
