<?xml version="1.0" encoding="UTF-8" standalone="no"?>
<svg width="18px" height="24px" viewBox="0 0 18 24" version="1.1" xmlns="http://www.w3.org/2000/svg" xmlns:xlink="http://www.w3.org/1999/xlink">
    <!-- Generator: Sketch 3.7.1 (28215) - http://www.bohemiancoding.com/sketch -->
    <title>Shapepng</title>
    <desc>Created with Sketch.</desc>
    <defs></defs>
    <g id="Page-1" stroke="none" stroke-width="1" fill="none" fill-rule="evenodd">
        <g id="nqis-shield" fill="#0090B1">
            <g id="Page-1">
                <path d="M9,4.942 C10.827,6.047 12.474,6.542 14,6.775 L14,14.535 C14,16.141 13.585,16.47 9,19.295 L9,4.942 L9,4.942 L9,4.942 Z M18,3 L18,14.535 C18,19.138 14.797,20.339 9,24 C3.203,20.339 0,19.138 0,14.535 L0,3 C3.516,3 5.629,2.866 9,0 C12.371,2.866 14.484,3 18,3 L18,3 L18,3 Z M16,4.96 C13.554,4.836 11.5,4.349 9,2.544 C6.5,4.349 4.446,4.836 2,4.96 L2,14.535 C2,17.577 3.69,18.365 9,21.642 C14.313,18.361 16,17.577 16,14.535 L16,4.96 L16,4.96 L16,4.96 Z" id="Shape"></path>
            </g>
        </g>
    </g>
</svg>